<svg xmlns="http://www.w3.org/2000/svg" xmlns:xlink="http://www.w3.org/1999/xlink" viewBox="0 0 107 123">
  <defs>
    <linearGradient id="lg1" x1=".31" y1="-32.46" x2="24.88" y2="116.23" gradientUnits="userSpaceOnUse">
      <stop offset=".17" stop-color="#5dbce5"/>
      <stop offset=".44" stop-color="#4da8d3"/>
      <stop offset=".91" stop-color="#2c7eac"/>
    </linearGradient>
    <linearGradient id="lg2" x1="2.99" y1="32.83" x2="21.07" y2="142.23" xlink:href="#lg1"/>
    <linearGradient id="lg3" x1="54.22" y1="-26.91" x2="74.28" y2="94.48" xlink:href="#lg1"/>
    <linearGradient id="lg4" x1="45.11" y1="-13.28" x2="86.11" y2="234.77" xlink:href="#lg1"/>
    <linearGradient id="lg5" x1="45.11" y1="-5.31" x2="67.48" y2="129.99" xlink:href="#lg1"/>
  </defs>
  <path fill="url(#lg1)" d="M19.57,0V48.51c-3.82-.44-7.7-.39-11.55,.14l-8.02,1.12V0H19.57Z"/>
  <path fill="url(#lg2)" d="M14.38,55.55c1.73,0,3.46,.12,5.19,.35v36.11H0V57.17l9.03-1.25c1.77-.24,3.57-.37,5.35-.37Z"/>
  <path fill="url(#lg3)" d="M71.08,0V39.01c-2.76-.5-5.46-1.31-8.09-2.41l-11.48-4.83V0h19.57Z"/>
  <path fill="url(#lg4)" d="M60.15,43.37c3.55,1.49,7.22,2.51,10.93,3.07V122.81h-19.57V39.74l8.64,3.63Z"/>
  <path fill="url(#lg5)" d="M106.37,37.29v21.18c-6.12,2.96-12.65,4.92-19.34,5.84-2.95,.41-5.91,.62-8.9,.62-2.35,0-4.71-.13-7.05-.39-6.19-.67-12.35-2.23-18.27-4.72l-1.3-.54-17.78-7.46c-2.93-1.23-7.34-2.15-10.44-2.75-1.23-.24-2.47-.43-3.71-.57-3.82-.44-7.7-.39-11.55,.14l-8.02,1.12V31.64l5.41-.74c4.72-.66,9.46-.79,14.16-.42,1.24,.1,2.48,.23,3.71,.4,5.62,.76,12.52,2.25,17.79,4.46l10.44,4.39,8.64,3.63c3.55,1.49,7.22,2.51,10.93,3.07,5.32,.82,10.73,.69,15.96-.33,6.94-1.37,13.59-4.33,19.34-8.82Z"/>
</svg>
