<?xml version="1.0" encoding="UTF-8"?><svg id="Layer_2" xmlns="http://www.w3.org/2000/svg" xmlns:xlink="http://www.w3.org/1999/xlink" viewBox="0 0 489.63 122.81"><defs><style>.cls-1{fill:url(#linear-gradient-2);}.cls-2{fill:#153348;}.cls-3{fill:#0d345d;}.cls-4{fill:url(#linear-gradient-5);}.cls-5{fill:url(#linear-gradient-3);}.cls-6{fill:url(#linear-gradient);}.cls-7{fill:url(#linear-gradient-4);}</style><linearGradient id="linear-gradient" x1=".31" y1="-32.46" x2="24.88" y2="116.23" gradientTransform="matrix(1, 0, 0, 1, 0, 0)" gradientUnits="userSpaceOnUse"><stop offset=".17" stop-color="#5dbce5"/><stop offset=".44" stop-color="#4da8d3"/><stop offset=".91" stop-color="#2c7eac"/></linearGradient><linearGradient id="linear-gradient-2" x1="2.99" y1="32.83" x2="21.07" y2="142.23" xlink:href="#linear-gradient"/><linearGradient id="linear-gradient-3" x1="54.22" y1="-26.91" x2="74.28" y2="94.48" xlink:href="#linear-gradient"/><linearGradient id="linear-gradient-4" x1="45.11" y1="-13.28" x2="86.11" y2="234.77" xlink:href="#linear-gradient"/><linearGradient id="linear-gradient-5" x1="45.11" y1="-5.31" x2="67.48" y2="129.99" xlink:href="#linear-gradient"/></defs><g id="Layer_1-2"><g><g><path class="cls-2" d="M135.79,58.42V15.78h9.54V58.42h-9.54Zm5.74-17.76v-8.27h23.79v8.27h-23.79Zm20.66,17.76V15.78h9.6V58.42h-9.6Z"/><path class="cls-2" d="M184.6,58.42V15.78h9.54V58.42h-9.54Z"/><path class="cls-2" d="M227.05,59.14c-3.14,0-6.07-.57-8.79-1.72s-5.08-2.73-7.1-4.74c-2.01-2.01-3.59-4.35-4.74-7.01s-1.72-5.54-1.72-8.64,.58-6.03,1.75-8.67c1.17-2.64,2.8-4.95,4.89-6.94,2.09-1.99,4.52-3.55,7.28-4.68,2.76-1.13,5.73-1.69,8.91-1.69,3.66,0,7,.67,10.02,2.02,3.02,1.35,5.52,3.19,7.49,5.53l-6.52,6.52c-1.33-1.77-2.93-3.11-4.8-4.02s-3.96-1.36-6.25-1.36c-2.5,0-4.73,.55-6.7,1.66-1.97,1.11-3.51,2.66-4.62,4.65s-1.66,4.32-1.66,6.98,.54,4.93,1.63,6.95c1.09,2.01,2.58,3.59,4.47,4.74,1.89,1.15,4.07,1.72,6.52,1.72s4.56-.47,6.31-1.42c1.75-.95,3.1-2.33,4.05-4.14,.95-1.81,1.42-3.99,1.42-6.52l6.34,4.23-19.02-.3v-8.03h22.41v1.39c0,5.07-.92,9.36-2.75,12.86-1.83,3.5-4.37,6.15-7.61,7.94-3.24,1.79-6.98,2.69-11.2,2.69Z"/><path class="cls-2" d="M258.73,58.42V15.78h9.54V58.42h-9.54Zm5.74-17.76v-8.27h23.79v8.27h-23.79Zm20.66,17.76V15.78h9.6V58.42h-9.6Z"/><path class="cls-2" d="M317.5,24.11V15.78h36.24v8.33h-36.24Zm13.35,34.3V16.32h9.6V58.42h-9.6Z"/><path class="cls-2" d="M362.74,58.42V15.78h9.54V58.42h-9.54Z"/><path class="cls-2" d="M385.13,58.42V15.78h9.54V58.42h-9.54Zm6.52,0v-8.33h10.51c2.58,0,4.82-.52,6.73-1.57s3.39-2.55,4.44-4.5c1.05-1.95,1.57-4.28,1.57-6.98s-.53-4.96-1.6-6.92c-1.07-1.95-2.56-3.44-4.47-4.47-1.91-1.03-4.14-1.54-6.67-1.54h-10.81V15.78h10.93c3.22,0,6.19,.51,8.91,1.54,2.72,1.03,5.09,2.5,7.13,4.41,2.03,1.91,3.61,4.16,4.74,6.73,1.13,2.58,1.69,5.46,1.69,8.64s-.56,5.95-1.69,8.54c-1.13,2.6-2.7,4.85-4.71,6.76-2.01,1.91-4.38,3.39-7.1,4.44-2.72,1.05-5.67,1.57-8.85,1.57h-10.75Z"/><path class="cls-2" d="M435.16,58.42V15.78h9.54V58.42h-9.54Zm7.31-34.42V15.78h23.07v8.21h-23.07Zm0,16.67v-8.03h21.26v8.03h-21.26Zm0,17.76v-8.21h23.43v8.21h-23.43Z"/></g><g><path class="cls-3" d="M135.79,95.21v-16.91h2.03l7.38,11.57h-1.32l7.38-11.57h2.03v16.91h-2.92v-12.03l.66,.17-5.48,8.58h-2.03l-5.48-8.58,.66-.17v12.03h-2.92Z"/><path class="cls-3" d="M178.98,95.21l7.31-16.91h2.03l7.25,16.91h-3.15l-5.68-13.7h1.07l-5.73,13.7h-3.09Zm3.6-3.26v-2.42h9.41v2.42h-9.41Z"/><path class="cls-3" d="M221.27,95.21v-16.91h2.92v16.91h-2.92Zm2-7.17v-2.29h4.49c.9,0,1.59-.22,2.09-.66s.75-1.06,.75-1.85c0-.71-.25-1.3-.74-1.79s-1.18-.72-2.08-.72h-4.51v-2.42h4.64c1.12,0,2.1,.21,2.94,.64s1.5,1.01,1.97,1.74c.46,.73,.7,1.57,.7,2.5,0,.98-.23,1.84-.7,2.56s-1.12,1.29-1.97,1.69-1.83,.6-2.94,.6h-4.64Zm7.74,7.17l-6.21-7.34,2.71-.94,7.18,8.29h-3.68Z"/><path class="cls-3" d="M260.36,95.21v-16.91h2.92v16.91h-2.92Zm10.73,0l-8.22-8.82,8.04-8.09h3.73l-8.88,8.79v-1.52l9.13,9.64h-3.8Z"/><path class="cls-3" d="M300.56,95.21v-16.91h2.92v16.91h-2.92Zm2-14.37v-2.54h9.82v2.54h-9.82Zm0,6.96v-2.44h9.08v2.44h-9.08Zm0,7.42v-2.54h9.94v2.54h-9.94Z"/><path class="cls-3" d="M337.36,80.83v-2.54h14.48v2.54h-14.48Zm5.78,14.37v-16.43h2.92v16.43h-2.92Z"/><path class="cls-3" d="M377.54,95.21v-16.91h2.92v16.91h-2.92Z"/><path class="cls-3" d="M407.47,95.21v-16.91h2.03l.89,3.19v13.72h-2.92Zm12.3,0l-10.63-13.21,.36-3.7,10.63,13.21-.36,3.7Zm0,0l-.89-2.97v-13.94h2.92v16.91h-2.03Z"/><path class="cls-3" d="M456.83,95.45c-1.22,0-2.37-.23-3.45-.68-1.08-.45-2.03-1.08-2.84-1.87-.81-.8-1.45-1.72-1.92-2.78s-.7-2.19-.7-3.39,.23-2.33,.7-3.38,1.11-1.97,1.93-2.77c.82-.8,1.78-1.42,2.89-1.86,1.11-.44,2.3-.66,3.59-.66,1.4,0,2.71,.26,3.91,.77,1.2,.52,2.21,1.25,3.02,2.2l-1.98,1.88c-.52-.71-1.23-1.25-2.1-1.63-.88-.38-1.83-.57-2.84-.57-1.22,0-2.29,.25-3.21,.76-.92,.51-1.64,1.21-2.14,2.11-.51,.9-.76,1.95-.76,3.14s.26,2.24,.77,3.15c.52,.91,1.21,1.62,2.09,2.14,.88,.52,1.88,.77,2.99,.77,1.18,0,2.2-.21,3.06-.62,.85-.41,1.51-1.02,1.97-1.84,.46-.81,.68-1.82,.68-3.01l1.83,1.26h-7.58v-2.54h8.78v.39c0,2.01-.38,3.69-1.13,5.03-.75,1.34-1.78,2.33-3.08,3-1.3,.66-2.79,.99-4.46,.99Z"/></g><g><path class="cls-6" d="M19.57,0V48.51c-3.82-.44-7.7-.39-11.55,.14l-8.02,1.12V0H19.57Z"/><path class="cls-1" d="M14.38,55.55c1.73,0,3.46,.12,5.19,.35v36.11H0V57.17l9.03-1.25c1.77-.24,3.57-.37,5.35-.37Z"/><path class="cls-5" d="M71.08,0V39.01c-2.76-.5-5.46-1.31-8.09-2.41l-11.48-4.83V0h19.57Z"/><path class="cls-7" d="M60.15,43.37c3.55,1.49,7.22,2.51,10.93,3.07V122.81h-19.57V39.74l8.64,3.63Z"/><path class="cls-4" d="M106.37,37.29v21.18c-6.12,2.96-12.65,4.92-19.34,5.84-2.95,.41-5.91,.62-8.9,.62-2.35,0-4.71-.13-7.05-.39-6.19-.67-12.35-2.23-18.27-4.72l-1.3-.54-17.78-7.46c-2.93-1.23-7.34-2.15-10.44-2.75-1.23-.24-2.47-.43-3.71-.57-3.82-.44-7.7-.39-11.55,.14l-8.02,1.12V31.64l5.41-.74c4.72-.66,9.46-.79,14.16-.42,1.24,.1,2.48,.23,3.71,.4,5.62,.76,12.52,2.25,17.79,4.46l10.44,4.39,8.64,3.63c3.55,1.49,7.22,2.51,10.93,3.07,5.32,.82,10.73,.69,15.96-.33,6.94-1.37,13.59-4.33,19.34-8.82Z"/></g></g></g></svg>